<?xml version="1.0" encoding="utf-8"?>
<!-- Generator: Adobe Illustrator 25.2.0, SVG Export Plug-In . SVG Version: 6.00 Build 0)  -->
<svg version="1.1" id="Слой_1" xmlns="http://www.w3.org/2000/svg" xmlns:xlink="http://www.w3.org/1999/xlink" x="0px" y="0px"
	 viewBox="0 0 1194.7 612" style="enable-background:new 0 0 1194.7 612;" xml:space="preserve">
<style type="text/css">
	.st0{clip-path:url(#SVGID_2_);fill:url(#SVGID_3_);}
	.st1{clip-path:url(#SVGID_4_);fill:#F8D513;}
	.st2{clip-path:url(#SVGID_6_);fill:url(#SVGID_7_);}
	.st3{clip-path:url(#SVGID_8_);fill:#F8D513;}
	.st4{clip-path:url(#SVGID_10_);fill:url(#SVGID_11_);}
	.st5{clip-path:url(#SVGID_12_);fill:#F8D513;}
	.st6{clip-path:url(#SVGID_13_);fill:#F8D513;}
	.st7{clip-path:url(#SVGID_15_);fill:url(#SVGID_16_);}
	.st8{clip-path:url(#SVGID_18_);fill:url(#SVGID_19_);}
	.st9{clip-path:url(#SVGID_21_);fill:url(#SVGID_22_);}
	.st10{fill:#36AE6F;}
</style>
<g>
	<defs>
		<path id="SVGID_35_" d="M401.3,384c-15.1,36.7-44.1,68-82.4,85.9c67.4-18.2,117.1-79.8,117.1-152.9c0-23.5-5.1-45.7-14.3-65.7
			h-0.1c-7-14.8-16.4-28.8-28.4-41.4c-7.7-8.2-15.9-15.3-24.8-21.4C404.9,247.9,429,312.5,401.3,384"/>
	</defs>
	<linearGradient id="SVGID_1_" gradientUnits="userSpaceOnUse" x1="419.1636" y1="396.3792" x2="287.7607" y2="278.0634">
		<stop  offset="0" style="stop-color:#F8D213"/>
		<stop  offset="0.1944" style="stop-color:#F8BE13"/>
		<stop  offset="0.4686" style="stop-color:#F8A913"/>
		<stop  offset="0.7363" style="stop-color:#F89C13"/>
		<stop  offset="0.9879" style="stop-color:#F89813"/>
	</linearGradient>
	<use xlink:href="#SVGID_35_"  style="overflow:visible;fill:url(#SVGID_1_);"/>
	<clipPath id="SVGID_2_">
		<use xlink:href="#SVGID_35_"  style="overflow:visible;"/>
	</clipPath>
	
		<linearGradient id="SVGID_3_" gradientUnits="userSpaceOnUse" x1="90.9628" y1="702.6567" x2="90.2935" y2="703.3851" gradientTransform="matrix(3.989 393.9161 -393.9161 3.989 276905.9062 -38212.1523)">
		<stop  offset="0" style="stop-color:#F8D213"/>
		<stop  offset="0.1944" style="stop-color:#F8BE13"/>
		<stop  offset="0.4686" style="stop-color:#F8A913"/>
		<stop  offset="0.7363" style="stop-color:#F89C13"/>
		<stop  offset="0.9879" style="stop-color:#F89813"/>
	</linearGradient>
	<polygon class="st0" points="316,188.5 318.9,471.1 438.8,469.9 435.9,187.3 	"/>
</g>
<g>
	<defs>
		<path id="SVGID_39_" d="M368.4,188.5c8.8,6.2,17,13.4,24.8,21.4c11.9,12.6,21.3,26.6,28.5,41.4h0.1c-12-26.2-31-48.7-54.6-64.9
			C367.6,187.2,368,187.8,368.4,188.5"/>
	</defs>
	<use xlink:href="#SVGID_39_"  style="overflow:visible;fill:#F8D513;"/>
	<clipPath id="SVGID_4_">
		<use xlink:href="#SVGID_39_"  style="overflow:visible;"/>
	</clipPath>
	
		<rect x="366.9" y="186.2" transform="matrix(0.9999 -1.012055e-02 1.012055e-02 0.9999 -2.195 4.0035)" class="st1" width="55.2" height="65.4"/>
</g>
<g>
	<defs>
		<path id="SVGID_41_" d="M170,201.3c-62.9,59.4-64.9,159.4-4.4,223.4c7,7.4,14.7,14.1,22.7,20c-26.9-35.2-34.1-84.3-11-122.4
			c14.7-24.4,31.5-39,55.7-46.8c-4.9,4.5-8.1,11.1-9.6,18.3h43.7h1c0,0-1,26.3-0.2,38.6c2.7-2.7,4.8-5.9,6.4-9.7
			c-0.4-9.2-0.1-21.3,0.1-28.4c-0.3-1-0.7-2-1.1-3.1c-0.4-0.8-0.7-1.6-1.1-2.5h-29.6l2.7-47c-17.1-24.1-34.1-41.9-42.4-64
			C191.2,184,180.1,191.9,170,201.3"/>
	</defs>
	<linearGradient id="SVGID_5_" gradientUnits="userSpaceOnUse" x1="121.2662" y1="316.3958" x2="275.2639" y2="305.6273">
		<stop  offset="1.212120e-02" style="stop-color:#F89813"/>
		<stop  offset="0.3758" style="stop-color:#F8CF13"/>
		<stop  offset="0.8848" style="stop-color:#F89813"/>
	</linearGradient>
	<use xlink:href="#SVGID_41_"  style="overflow:visible;fill:url(#SVGID_5_);"/>
	<clipPath id="SVGID_6_">
		<use xlink:href="#SVGID_41_"  style="overflow:visible;"/>
	</clipPath>
	
		<linearGradient id="SVGID_7_" gradientUnits="userSpaceOnUse" x1="91.2371" y1="701.574" x2="91.2829" y2="702.2729" gradientTransform="matrix(-1.5288 -349.411 349.411 -1.5288 -244958.5938 33273.4961)">
		<stop  offset="1.212120e-02" style="stop-color:#F89813"/>
		<stop  offset="0.3758" style="stop-color:#F8CF13"/>
		<stop  offset="0.8848" style="stop-color:#F89813"/>
	</linearGradient>
	<polygon class="st2" points="275.6,444.7 274.5,176.9 104,177.7 105.2,445.5 	"/>
</g>
<g>
	<defs>
		<path id="SVGID_45_" d="M119.2,317.2c0,56.5,29.6,106,74.1,134c-1.7-2-3.5-4.1-5.1-6.2c-8.1-6-15.7-12.6-22.7-20.1
			c-60.5-64.1-58.4-164,4.4-223.4c10.1-9.5,21.1-17.4,32.8-23.7c0-0.1-0.1-0.2-0.1-0.2C152.9,204.4,119.2,256.8,119.2,317.2"/>
	</defs>
	<use xlink:href="#SVGID_45_"  style="overflow:visible;fill:#F8D513;"/>
	<clipPath id="SVGID_8_">
		<use xlink:href="#SVGID_45_"  style="overflow:visible;"/>
	</clipPath>
	
		<rect x="104.3" y="177.5" transform="matrix(1 -4.376784e-03 4.376784e-03 1 -1.3749 0.6762)" class="st3" width="98.9" height="274"/>
</g>
<g>
	<defs>
		<path id="SVGID_47_" d="M272.1,158.7c0.1,0.2,0.3,0.4,0.4,0.6c10.3,14.1,23,27,34.9,40.3c49.4,56.6,98.7,121,61.5,202.7
			c-1.1,2.5-2.3,5-3.6,7.3l0.2,3.6h-2.1c-16.2,30.2-37.6,49.2-66.3,60.9c6.5-0.8,13-1.9,19.2-3.6c35.8-17.9,69.1-51.1,80.2-81.6
			c25.1-71.2,10.9-127.2-25.4-189.7c-2.9-5.2-5.5-9.9-8.3-14.5c-0.3-0.6-0.7-1.2-1-1.8c-24.4-15.3-53.2-24.3-84.1-24.3
			C275.8,158.6,274,158.7,272.1,158.7"/>
	</defs>
	<linearGradient id="SVGID_9_" gradientUnits="userSpaceOnUse" x1="272.1236" y1="316.3478" x2="409.113" y2="316.3478">
		<stop  offset="0" style="stop-color:#F8D513"/>
		<stop  offset="0.4727" style="stop-color:#F8D513"/>
		<stop  offset="0.5049" style="stop-color:#F8CF13"/>
		<stop  offset="0.7064" style="stop-color:#F8B113"/>
		<stop  offset="0.8785" style="stop-color:#F89F13"/>
		<stop  offset="1" style="stop-color:#F89813"/>
	</linearGradient>
	<use xlink:href="#SVGID_47_"  style="overflow:visible;fill:url(#SVGID_9_);"/>
	<clipPath id="SVGID_10_">
		<use xlink:href="#SVGID_47_"  style="overflow:visible;"/>
	</clipPath>
	
		<linearGradient id="SVGID_11_" gradientUnits="userSpaceOnUse" x1="90.625" y1="702.1155" x2="91.6252" y2="702.1155" gradientTransform="matrix(-1.8075 -413.0724 413.0724 -1.8075 -289512.7812 39274.1953)">
		<stop  offset="0" style="stop-color:#F8D513"/>
		<stop  offset="0.4727" style="stop-color:#F8D513"/>
		<stop  offset="0.5049" style="stop-color:#F8CF13"/>
		<stop  offset="0.7064" style="stop-color:#F8B113"/>
		<stop  offset="0.8785" style="stop-color:#F89F13"/>
		<stop  offset="1" style="stop-color:#F89813"/>
	</linearGradient>
	<polygon class="st4" points="422.9,474.1 421.6,158 270.7,158.6 272.1,474.7 	"/>
</g>
<g>
	<defs>
		<path id="SVGID_51_" d="M362.8,184.7c2.7,4.6,5.4,9.3,8.3,14.5c36.3,62.6,50.5,118.5,25.5,189.9c-11.1,30.5-44.4,63.9-80.2,81.6
			c0.9-0.2,1.7-0.5,2.7-0.7c38.4-17.8,67.3-49.2,82.4-85.9c27.6-71.6,3.6-136.3-33-195.6c-0.4-0.7-0.8-1.3-1.2-2
			c-1.7-1.2-3.6-2.4-5.4-3.6C362.1,183.5,362.5,184.1,362.8,184.7"/>
	</defs>
	<use xlink:href="#SVGID_51_"  style="overflow:visible;fill:#F8D513;"/>
	<clipPath id="SVGID_12_">
		<use xlink:href="#SVGID_51_"  style="overflow:visible;"/>
	</clipPath>
	
		<rect x="315.8" y="182.6" transform="matrix(1 -4.375809e-03 4.375809e-03 1 -1.4265 1.6342)" class="st5" width="114" height="288.3"/>
</g>
<g>
	<defs>
		<path id="SVGID_53_" d="M273.7,288.7h-1.4c0.4,0.8,0.7,1.6,1.1,2.5c0.3,1,0.7,2,1.1,3.1c0.1-3.4,0.2-5.6,0.2-5.6H273.7z"/>
	</defs>
	<use xlink:href="#SVGID_53_"  style="overflow:visible;fill:#F8D513;"/>
	<clipPath id="SVGID_13_">
		<use xlink:href="#SVGID_53_"  style="overflow:visible;"/>
	</clipPath>
	
		<rect x="270.6" y="290.2" transform="matrix(3.470286e-03 -1 1 3.470286e-03 -18.9571 563.8958)" class="st6" width="5.6" height="2.5"/>
</g>
<g>
	<defs>
		<path id="SVGID_55_" d="M202.7,177.8c8.5,22,25.3,39.9,42.5,64l2.6-46.6h16.5h16.5l8,143l6.1-109.6h13.9h14l7.4,134l5.3-94.9h11
			h11l7.9,142.1c1.2-2.3,2.4-4.9,3.6-7.3c37.3-81.7-12.1-146.1-61.5-202.7c-11.9-13.3-24.5-26.2-34.9-40.3
			C248.4,160,224.4,166.2,202.7,177.8"/>
	</defs>
	<linearGradient id="SVGID_14_" gradientUnits="userSpaceOnUse" x1="202.6612" y1="284.5747" x2="382.0078" y2="284.5747">
		<stop  offset="1.212120e-02" style="stop-color:#F89813"/>
		<stop  offset="0.5152" style="stop-color:#F8D213"/>
		<stop  offset="0.9758" style="stop-color:#F89813"/>
	</linearGradient>
	<use xlink:href="#SVGID_55_"  style="overflow:visible;fill:url(#SVGID_14_);"/>
	<clipPath id="SVGID_15_">
		<use xlink:href="#SVGID_55_"  style="overflow:visible;"/>
	</clipPath>
	<linearGradient id="SVGID_16_" gradientUnits="userSpaceOnUse" x1="201.8008" y1="284.5744" x2="407.1138" y2="284.5744">
		<stop  offset="0" style="stop-color:#F8D513"/>
		<stop  offset="0.5152" style="stop-color:#F8D213"/>
		<stop  offset="0.9758" style="stop-color:#F89813"/>
	</linearGradient>
	<polygon class="st7" points="202.7,158.7 201.8,409.7 406.3,410.4 407.1,159.4 	"/>
</g>
<g>
	<defs>
		<path id="SVGID_59_" d="M177.2,322.5c-23.1,38.1-15.9,87.2,11,122.4c1.6,2.1,3.4,4.3,5.1,6.2c4,2.5,8.1,4.8,12.2,6.9
			c21.6,11.1,46.1,17.3,72.1,17.3c6.6,0,13.2-0.4,19.5-1.2c28.7-11.6,50.1-30.7,66.3-60.9h-17h-13.5h-5.6h-18.6h-9.2
			c0,0-12.9-35.2-16.4-47.1c-2.6-8.5-7.4-25.4-8.5-34.1c-0.3-2.2-0.4-5.5-0.5-9.3c-1.6,3.8-3.8,7-6.4,9.7c0.1,1.1,0.1,2.1,0.2,3
			c1,8.4,5.7,24.6,8.1,32.6c3.4,11.4,15.7,45.2,15.7,45.2h-2.2H183.4h-2.1c0,0,12.3-33.8,15.7-45.2c2.4-8.1,7-24.3,8.1-32.6
			c1.2-10.3,0-41.5,0-41.5h1h17.2c1.5-7.1,4.6-13.8,9.6-18.3C208.8,283.5,192,298.1,177.2,322.5"/>
	</defs>
	<linearGradient id="SVGID_17_" gradientUnits="userSpaceOnUse" x1="168.6167" y1="336.7401" x2="345.7106" y2="443.1489">
		<stop  offset="0" style="stop-color:#F8D513"/>
		<stop  offset="0.5818" style="stop-color:#F8D513"/>
		<stop  offset="0.9758" style="stop-color:#F89813"/>
	</linearGradient>
	<use xlink:href="#SVGID_59_"  style="overflow:visible;fill:url(#SVGID_17_);"/>
	<clipPath id="SVGID_18_">
		<use xlink:href="#SVGID_59_"  style="overflow:visible;"/>
	</clipPath>
	
		<linearGradient id="SVGID_19_" gradientUnits="userSpaceOnUse" x1="90.3871" y1="703.951" x2="91.1101" y2="702.7384" gradientTransform="matrix(-0.6946 202.1329 -202.1329 -0.6946 142490.4844 -17479.4336)">
		<stop  offset="0" style="stop-color:#F8D513"/>
		<stop  offset="0.4545" style="stop-color:#F8D513"/>
		<stop  offset="0.9758" style="stop-color:#F89813"/>
	</linearGradient>
	<polygon class="st8" points="154.1,275 153.4,475.4 363.4,476.1 364.1,275.7 	"/>
</g>
<g>
	<defs>
		<path id="SVGID_63_" d="M202.6,177.6c0,0.1,0.1,0.2,0.1,0.2c21.8-11.7,45.8-17.9,69.9-18.4c-0.1-0.2-0.3-0.4-0.4-0.6
			C247,159.6,223.4,166.4,202.6,177.6"/>
	</defs>
	<linearGradient id="SVGID_20_" gradientUnits="userSpaceOnUse" x1="202.5601" y1="168.2944" x2="272.5318" y2="168.2944">
		<stop  offset="1.212120e-02" style="stop-color:#F89813"/>
		<stop  offset="0.5152" style="stop-color:#F8D213"/>
		<stop  offset="0.9758" style="stop-color:#F89813"/>
	</linearGradient>
	<use xlink:href="#SVGID_63_"  style="overflow:visible;fill:url(#SVGID_20_);"/>
	<clipPath id="SVGID_21_">
		<use xlink:href="#SVGID_63_"  style="overflow:visible;"/>
	</clipPath>
	
		<linearGradient id="SVGID_22_" gradientUnits="userSpaceOnUse" x1="87.8899" y1="711" x2="88.8903" y2="711" gradientTransform="matrix(-6.690000e-02 19.4615 -19.4615 -6.690000e-02 14080.5869 -1504.3953)">
		<stop  offset="1.212120e-02" style="stop-color:#F89813"/>
		<stop  offset="0.5152" style="stop-color:#F8D213"/>
		<stop  offset="0.9758" style="stop-color:#F89813"/>
	</linearGradient>
	<polygon class="st9" points="202.6,158.6 202.5,177.8 272.5,178 272.6,158.8 	"/>
</g>
<g>
	<defs>
		<rect id="SVGID_67_" x="-83.7" y="-386.1" width="612" height="792"/>
	</defs>
	<clipPath id="SVGID_23_">
		<use xlink:href="#SVGID_67_"  style="overflow:visible;"/>
	</clipPath>
</g>
<g>
	<path d="M522.2,436.1c-6.9,0-11.9-2.6-15-7.7h-0.3l0.1,3.4c0.1,2,0.2,4.2,0.2,6.6v17h-4.1v-64.8h3.4l0.8,6.4h0.2
		c3.1-4.8,8-7.2,14.7-7.2c6,0,10.6,2,13.8,5.9c3.2,4,4.7,9.7,4.7,17.2c0,7.3-1.7,13-5,17C532.5,434.1,528,436.1,522.2,436.1z
		 M522.1,432.5c4.6,0,8.1-1.7,10.6-5.1c2.5-3.4,3.8-8.1,3.8-14.2c0-13.1-4.7-19.7-14.2-19.7c-5.2,0-9,1.4-11.4,4.3
		c-2.4,2.9-3.7,7.5-3.7,14v1.3c0,7,1.2,12,3.5,14.9C513,431,516.8,432.5,522.1,432.5z"/>
	<path d="M571.2,436.1c-6.5,0-11.5-2-15.2-6s-5.4-9.6-5.4-16.8c0-7.1,1.8-12.8,5.3-17.1s8.2-6.4,14.2-6.4c5.3,0,9.4,1.8,12.4,5.5
		c3,3.7,4.6,8.6,4.6,14.9v3.3h-32.1c0.1,6.1,1.5,10.8,4.3,14c2.8,3.2,6.8,4.8,12,4.8c2.5,0,4.8-0.2,6.7-0.5c1.9-0.4,4.4-1.1,7.3-2.3
		v3.7c-2.5,1.1-4.8,1.8-7,2.2C576.1,435.9,573.7,436.1,571.2,436.1z M570,393.4c-4.3,0-7.7,1.4-10.3,4.2c-2.6,2.8-4.1,6.9-4.6,12.2
		h27.6c0-5.2-1.1-9.2-3.4-12.1C577,394.9,573.9,393.4,570,393.4z"/>
	<path d="M623.5,390.7h5l-20,21.6l21.4,23h-5.5l-21.1-22.6v22.6h-4.1v-44.6h4.1v21.7L623.5,390.7z"/>
	<path d="M674.7,412.9c0,7.3-1.8,13-5.3,17c-3.5,4.1-8.4,6.1-14.6,6.1c-3.9,0-7.4-0.9-10.3-2.8c-3-1.9-5.3-4.6-6.9-8.1
		c-1.6-3.5-2.4-7.6-2.4-12.2c0-7.3,1.8-12.9,5.3-17s8.4-6.1,14.5-6.1c6.1,0,10.9,2.1,14.4,6.2C673,400.1,674.7,405.7,674.7,412.9z
		 M639.5,412.9c0,6.1,1.3,10.9,4,14.3c2.7,3.4,6.5,5.1,11.4,5.1s8.7-1.7,11.4-5.1c2.7-3.4,4-8.2,4-14.3c0-6.2-1.4-10.9-4.1-14.3
		c-2.7-3.4-6.5-5.1-11.5-5.1s-8.7,1.7-11.4,5.1C640.8,401.9,639.5,406.7,639.5,412.9z"/>
	<path d="M691.1,390.7v19.6h28.3v-19.6h4v44.6h-4v-21.5h-28.3v21.5H687v-44.6H691.1z"/>
	<path d="M756.2,436.1c-6.4,0-11.4-2-15-6s-5.4-9.6-5.4-16.8c0-7.4,1.9-13.1,5.6-17.2s8.9-6.2,15.4-6.2c3.9,0,7.5,0.7,11.1,2
		l-1.1,3.6c-3.9-1.3-7.2-1.9-10.1-1.9c-5.5,0-9.6,1.7-12.4,5.1c-2.8,3.4-4.2,8.2-4.2,14.6c0,6,1.4,10.7,4.2,14.1
		c2.8,3.4,6.8,5.1,11.8,5.1c4,0,7.8-0.7,11.3-2.2v3.8C764.5,435.4,760.8,436.1,756.2,436.1z"/>
	<path d="M806.6,394.2h-14.9v41.1h-4v-41.1h-15.2v-3.5h34.1V394.2z"/>
	<path d="M834.8,436.1c-6.9,0-11.9-2.6-15-7.7h-0.3l0.1,3.4c0.1,2,0.2,4.2,0.2,6.6v17h-4.1v-64.8h3.4l0.8,6.4h0.2
		c3.1-4.8,8-7.2,14.7-7.2c6,0,10.6,2,13.8,5.9c3.2,4,4.7,9.7,4.7,17.2c0,7.3-1.7,13-5,17C845.1,434.1,840.6,436.1,834.8,436.1z
		 M834.7,432.5c4.6,0,8.1-1.7,10.6-5.1c2.5-3.4,3.8-8.1,3.8-14.2c0-13.1-4.7-19.7-14.2-19.7c-5.2,0-9,1.4-11.4,4.3
		c-2.4,2.9-3.7,7.5-3.7,14v1.3c0,7,1.2,12,3.5,14.9C825.6,431,829.5,432.5,834.7,432.5z"/>
	<path d="M858.3,390.7h4.2l9.4,25c2.9,7.7,4.7,12.9,5.5,15.5h0.2c1.1-3.5,3-8.8,5.6-15.8l9.4-24.8h4.2l-20,51.8
		c-1.6,4.2-3,7.1-4.1,8.5c-1.1,1.5-2.4,2.6-3.8,3.3s-3.2,1.1-5.3,1.1c-1.6,0-3.3-0.3-5.2-0.9V451c1.6,0.4,3.3,0.7,5.1,0.7
		c1.4,0,2.6-0.3,3.7-1s2-1.7,2.9-3.1c0.9-1.4,1.9-3.6,3-6.6c1.1-3,1.9-4.9,2.2-5.8L858.3,390.7z"/>
	<path d="M928.5,390.7h5l-20,21.6l21.4,23h-5.5l-21.1-22.6v22.6h-4.1v-44.6h4.1v21.7L928.5,390.7z"/>
	<path d="M983.6,450.4h-4.1v-15.1h-36.6v-44.6h4.1v40.7h26.6v-40.7h4v40.7h6V450.4z"/>
	<path d="M992.5,378.3c0-2.6,0.9-3.9,2.6-3.9c0.8,0,1.5,0.3,2,1c0.5,0.7,0.7,1.7,0.7,2.9c0,1.2-0.2,2.2-0.7,2.9s-1.1,1.1-2,1.1
		C993.3,382.2,992.5,380.9,992.5,378.3z M997.1,435.2H993v-44.6h4.1V435.2z"/>
	<path d="M1011.4,435.2h-5.1l13.5-19.2c-4.1-0.8-7.1-2.2-8.9-4.3c-1.8-2.1-2.7-4.7-2.7-8c0-4,1.4-7.2,4.1-9.6
		c2.7-2.3,6.4-3.5,11-3.5h18.4v44.6h-4v-18.7h-13.6L1011.4,435.2z M1012.4,403.6c0,3.1,1,5.3,3,6.8c2,1.5,5,2.2,9,2.2h13.2v-18.1
		h-14.4c-3.4,0-6,0.8-7.9,2.3S1012.4,400.6,1012.4,403.6z"/>
</g>
<path class="st10" d="M726.9,286.3c8.3,1.6,14.2,5.3,18.6,11.1c2.2,2.8,3.2,6.1,3.2,9.7c-0.1,7.4,0,14.7-0.1,22
	c0,12.6-6.1,21.1-18,25.3c-11.3,4-23,5.1-34.8,5.1c-19,0.2-38,0-57,0.1c-2.7,0-3.5-0.6-3.5-3.4c0.1-44.1,0.1-88.2,0-132.4
	c0-2.5,0.5-3.3,3.2-3.3c19.9,0.1,39.7-0.1,59.5,0.1c8,0.1,16.1,0.6,24,2.6c13.8,3.5,20.1,11.4,20.5,25.8c0.1,6.1,0.2,12.3,0,18.4
	c-0.3,8.1-5.3,13.1-11.9,16.8C729.8,284.9,728.8,285.3,726.9,286.3z M669.3,316.9c0,5.2,0.1,10.3-0.1,15.5c-0.1,2.3,0.6,3.2,3,3.1
	c7.9-0.1,15.9,0,23.8-0.1c4.2,0,8.4-0.4,12.3-2c3.8-1.6,6.4-4.3,6.4-8.7c0.1-4.8,0.1-9.6-0.1-14.4c-0.3-6.1-3.4-9.5-9.4-10.5
	c-11.3-1.7-22.8-0.4-34.2-0.8c-2-0.1-1.9,1.3-1.9,2.7C669.3,306.8,669.3,311.8,669.3,316.9z M686.5,244.8c-5.6,0-10,0-14.4,0
	c-1.6,0-2.8,0.1-2.7,2.2c0.1,9.2,0.1,18.6,0,27.8c0,1.2,0.2,2.2,1.7,2.1c10.5-0.3,21.2,0.9,31.7-0.9c3.4-0.6,5.6-2.7,6.4-6.1
	c1.4-5.9,1.2-12,0.4-17.9c-0.5-3.5-2.8-5.6-6.4-6.4C697.2,244.6,691.3,245.1,686.5,244.8z"/>
<path class="st10" d="M1044.7,291.1c0,10,0.1,19.9,0,30c-0.2,15.7-8.2,27.1-22.5,32.9c-19.2,7.8-39.2,8.7-59.6,6.9
	c-9-0.8-17.7-3-26.3-6c-15.1-5.3-23.7-17.3-23.8-33.4c0-19.5,0.3-39-0.1-58.4c-0.4-19.2,9.6-33.1,28.5-39.4
	c13.1-4.3,26.8-5.5,40.6-5.3c10.6,0.1,21.1,1.2,31.3,4.3c9.8,3,18.9,7.1,25.1,16c4.8,6.9,6.8,14.4,6.7,22.7
	C1044.7,271.3,1044.7,281.2,1044.7,291.1z M1011,290.8c0-9.7,0-19.5,0-29.2c0-9.4-3.5-14.2-12.7-16.6c-11.5-3-23.1-3.1-34.7-1
	c-13.8,2.5-17.1,6.8-17.1,20.7c0,18.4,0,36.8,0,55.2c0,8.8,3.3,13.5,12,15.5c14,3.3,28.1,3.3,42.1-0.3c6.9-1.8,10.4-6.6,10.4-13.7
	C1011,311.2,1011,301,1011,290.8z"/>
<path class="st10" d="M776.4,290c0-21.9,0.1-43.8-0.1-65.6c0-2.8,0.7-3.8,3.6-3.7c19.5,0.1,39-0.2,58.5,0.1
	c11.3,0.2,22.5,0.9,33.3,5.1c10.3,4.1,14.9,12.1,15.4,22.3c0.6,11.8,0.4,23.5,0.1,35.3c-0.4,14.7-9.5,24.3-25.1,27.8
	c-15.4,3.4-31,3.4-46.6,3.3c-5.3,0-5.3,0-5.3,5.4c0,12.1-0.1,24.3,0.1,36.5c0,2.5-0.6,3.2-3.2,3.2c-9-0.1-18.1-0.2-27.1,0
	c-3,0.1-3.5-1.1-3.5-3.8C776.4,334.1,776.4,312.1,776.4,290z M810.1,268c0,6.7,0.1,13.4-0.1,20.1c-0.1,2.5,0.5,3.5,3.2,3.3
	c3.7-0.2,7.4,0,11.2-0.1c6.9-0.1,13.7,0.1,20.4-1.4c7-1.7,9.6-5,9.7-12.2c0-7.1,0-14.2,0-21.2c0-7-2.3-9.7-9.4-10.7
	c-10.9-1.6-21.8-0.6-32.7-0.9c-2.2-0.1-2.2,1.1-2.2,2.7C810.1,254.3,810.1,261.2,810.1,268z"/>
<path class="st10" d="M499.8,290.7c0-9.9,0-19.7,0-29.6c0-18.3,8-30.2,25.2-36.8c13.5-5.1,27.7-6.1,41.9-5.8
	c13,0.2,25.8,2.3,38.7,4.2c2.1,0.3,2.9,0.9,2.9,3.1c-0.1,6.6-0.1,13.2,0,19.9c0.1,2.7-1,2.8-3.2,2.3c-16.1-3.8-32.3-6.1-49-5.1
	c-4.7,0.3-9.3,0.9-13.7,2.6c-5.3,2-8.4,6-8.9,11.6c-0.4,5.6-0.1,11.3-0.3,17c-0.1,2.6,1.7,2.1,3.2,2.1c16.5,0,33,0.1,49.5-0.1
	c3.2,0,4.2,0.8,4,4c-0.3,5.5-0.2,11,0,16.6c0.1,2.7-0.8,3.5-3.5,3.4c-16.2-0.1-32.5,0.1-48.7-0.1c-3.8-0.1-4.8,1.2-4.5,4.7
	c0.3,3.6,0.3,7.2,0,10.8c-1,12.8,6.2,18.2,17.2,20.5c15.9,3.3,31.6,1.2,47.2-2.1c3-0.6,6.1-1.4,9.2-2c1.7-0.4,2.4,0.1,2.4,1.9
	c-0.1,7-0.1,13.9,0,20.9c0,2.2-1,2.5-2.8,2.9c-10.3,2-20.7,3.2-31.1,3.8c-15.3,0.8-30.5,0.4-45.4-3.8c-11.8-3.4-21.7-9-27.1-20.7
	c-2.1-4.5-3.1-9.3-3.1-14.4C499.9,311.8,499.8,301.3,499.8,290.7z"/>
</svg>
